<?xml version="1.0" encoding="utf-8"?>
<!-- Generator: Adobe Illustrator 16.0.0, SVG Export Plug-In . SVG Version: 6.00 Build 0)  -->
<!DOCTYPE svg PUBLIC "-//W3C//DTD SVG 1.0//EN" "http://www.w3.org/TR/2001/REC-SVG-20010904/DTD/svg10.dtd">
<svg version="1.0" id="Layer_1" xmlns="http://www.w3.org/2000/svg" xmlns:xlink="http://www.w3.org/1999/xlink" x="0px" y="0px"
	 width="512px" height="512px" viewBox="0 0 512 512" enable-background="new 0 0 512 512" xml:space="preserve">
<path fill="#F4F4F4" d="M401.895,211.822v-61.206C401.895,72.404,338.492,9,260.277,9c-78.212,0-141.616,63.404-141.616,141.617
	v61.206H83.166V497h345.668V211.822H401.895z M278.997,347.535l7.555,78.926H234.83l8.853-80.437
	c-0.386-0.232-0.781-0.452-1.157-0.699c-10.074-6.598-16.728-17.986-16.728-30.926c0-20.403,16.541-36.943,36.943-36.943
	c20.403,0,36.943,16.54,36.943,36.943C299.684,328.96,291.236,341.518,278.997,347.535z M353.854,150.617v61.206H170.397v-61.206
	c-0.001-0.207-0.016-0.409-0.016-0.616c0-50.668,41.074-91.743,91.743-91.743c50.667,0,91.742,41.075,91.742,91.743
	C353.867,150.208,353.854,150.41,353.854,150.617z"/>
</svg>
